# xmcd
#
# Track frame offsets: 
#        150
#        13062
#        28012
#        41735
#        54862
#        67512
#        81325
#        93542
#        104062
#        115487
#        126590
#        138027
#        150995
#        164165
#        176737
#        189387
#        200340
#        214462
#        230650
#        241572
#        252590
#        265125
#        277687
#        289190
#
# Disc length: 4014 seconds
#
# Revision: 3
# Processed by: cddbd v1.5.2PL0 Copyright (c) Steve Scherf et al.
# Submitted via: ExactAudioCopyFreeDBPlugin 1.0
#
DISCID=5c0fac18
DTITLE=Various Artist - White Country Blues 1926-1938 [disc 2]
DYEAR=1900
DGENRE=Roots
TTITLE0=Blue Ridge Ramblers - Jug Rag
TTITLE1=Prairie Ramblers - Deep Elem Blues
TTITLE2=Clayton McMichen - Prohibition Blues
TTITLE3=Larry Hensley - Match Box Blues
TTITLE4=Callahan Brothers - Somebody's Been Using That Thing
TTITLE5=Homer Callahan - Rattle Snake Daddy
TTITLE6=Homer Callahan - My Good Gal Has Thrown Me Down
TTITLE7=W. Lee O'Daniel and His Hillbilly Boys - Dirty Hangover Blues
TTITLE8=W. Lee O'Daniel and His Hillbilly Boys - Tuck Away My Lonesome B
TTITLE8=lues
TTITLE9=Asa Martin and His Kentucky Hillbillies - Lonesome, Broke and We
TTITLE9=ary
TTITLE10=Cliff Carlisle - Chicken Roost Blues
TTITLE11=Cliif Carlisle - Tom Cat Blues
TTITLE12=Bill Cox and Cliff Hobbs - Oozlin' Daddy Blues
TTITLE13=Bill Cox and Cliff Hobbs - Kansas City Blues
TTITLE14=Ramblin' Red Lowery - Ramblin' Red's Memphis Yodel No. 1
TTITLE15=Anglin Brothers - Southern Whoopie Song
TTITLE16=Allen Brothers - Drunk and Nutty Blues
TTITLE17=Allen Brothers - Chattanooga Mama
TTITLE18=Smiling Bill Carlisle - String Bean Mama
TTITLE19=Smiling Bill Carlisle - Copper Head Mama
TTITLE20=Bill Cox - Long Chain Charlie Blues
TTITLE21=Bill Cox - Georgia Brown Blues
TTITLE22=Al Dexter - New Jelly Roll Blues
TTITLE23=The Rhythm Wreckers - Never No Mo' Blues
EXTD=
EXTT0=
EXTT1=
EXTT2=
EXTT3=
EXTT4=
EXTT5=
EXTT6=
EXTT7=
EXTT8=
EXTT9=
EXTT10=
EXTT11=
EXTT12=
EXTT13=
EXTT14=
EXTT15=
EXTT16=
EXTT17=
EXTT18=
EXTT19=
EXTT20=
EXTT21=
EXTT22=
EXTT23=
PLAYORDER=
